# xmcd
# 
# Track frame offsets:
#     150
#     11935
#     26477
#     41932
#     56082
#     68885
#     81627
#     93457
#     103782
#     117510
#     130127
#     143467
#     157732
#     169720
#     181980
#     193522
#     205807
#     217062
#     229420
#     242295
#     252947
#     264682
#     275595
#     288007
# 
# Disc length: 4001
# 
# Revision: 1
# Processed by: cddbd v1.5.2PL0 Copyright (c) Steve Scherf et al.
# Submitted via: fre:ac v1.0.17
# 
DISCID=640f9f18
DTITLE=Ernest Tubb - The Very Best Of Ernest Tubb
DYEAR=0
DGENRE=
TTITLE0=Walking The Floor Over You
TTITLE1=Soldier's Last Letter
TTITLE2=It's Been So Long Darling
TTITLE3=Rainbow At Midnight
TTITLE4=Slipping Around
TTITLE5=Blue Christmas
TTITLE6=Tennessee Border # 2
TTITLE7=I'm Biting' My Fingernails And Thinking of You
TTITLE8=Goodnight Irene
TTITLE9=I Love You Because
TTITLE10=Driftwood On The River
TTITLE11=Missing In Action
TTITLE12=Waltz Across Texas
TTITLE13=Mr. and Mrs. Used To Be
TTITLE14=Thanks A Lot
TTITLE15=Pass The Booze
TTITLE16=Let's Say Goodbye Like We Said Hello
TTITLE17=Filipino Baby
TTITLE18=Have You Ever Been Lonely
TTITLE19=I'll Get Along Somehow
TTITLE20=Answer The Phone
TTITLE21=Half A Mind
TTITLE22=Another Story
TTITLE23=I Wonder Why You Said Goodbye
EXTD=
EXTT0=
EXTT1=
EXTT2=
EXTT3=
EXTT4=
EXTT5=
EXTT6=
EXTT7=
EXTT8=
EXTT9=
EXTT10=
EXTT11=
EXTT12=
EXTT13=
EXTT14=
EXTT15=
EXTT16=
EXTT17=
EXTT18=
EXTT19=
EXTT20=
EXTT21=
EXTT22=
EXTT23=
PLAYORDER=
